<?xml version="1.0"?>
<svg xmlns="http://www.w3.org/2000/svg" xmlns:xlink="http://www.w3.org/1999/xlink" viewBox="0 0 512 512" width="512" height="512"><defs><linearGradient id="linear-gradient" x1="116.201" y1="460.786" x2="447.194" y2="129.793" gradientUnits="userSpaceOnUse"><stop offset="0" stop-color="#41dfd0"/><stop offset="1" stop-color="#ee83ef"/></linearGradient></defs><g id="gradient"><path d="M161.408,297.338l13.184-9.064,10,14.545-13.184,9.065Zm5.184-20.7-9.5-13.819-13.184,9.065,9.5,13.818ZM496,307.352v31.61a40.436,40.436,0,0,1-40.39,40.39H48a32.036,32.036,0,0,1-32-32,15.933,15.933,0,0,1,4.664-11.3A16.382,16.382,0,0,1,24,333.513V308.142a72.414,72.414,0,0,1,52.868-69.559l85.1-23.639a104.191,104.191,0,0,0,21.044-8.4l6.091-3.5a87.424,87.424,0,0,1-27.507-6.914,8,8,0,1,1,6.35-14.685,71.827,71.827,0,0,0,44.179,4.191,31.991,31.991,0,1,1,46.913-41.5l8.024,14.044,5.427-3.123a57.888,57.888,0,0,1,28.81-7.7h49.57a28.669,28.669,0,0,1,9.465,1.6,28.976,28.976,0,0,1,18.871,21.643,20.867,20.867,0,0,0,38.344,6.635l9.179-15.309a30.164,30.164,0,0,1,25.731-14.565H454a26.029,26.029,0,0,1,26,26V284.728A24.038,24.038,0,0,1,496,307.352Zm-32-81.566-30.689,19.187A36.6,36.6,0,0,0,416,276.19v22.141l48-13.09ZM363.516,173.723A12.91,12.91,0,0,0,357.8,165.4l-51.434,25.717L389.1,305.666l10.9-2.972v-26.5a52.506,52.506,0,0,1,24.831-44.785L464,206.917V173.352a10.011,10.011,0,0,0-10-10h-1.54a14.08,14.08,0,0,0-12.011,6.8l-9.178,15.307a36.861,36.861,0,0,1-67.755-11.733Zm-63.377,151.8-70.9-98.167H212.708l70.113,101.979Zm37.735-8.306L263.861,212.364l-18.886,9.443,72.193,99.963Zm34.366-7.565L291.865,198.367l-12.852,6.421-.676.338,76.488,108.355Zm-165.5-98.3h23.375l96-48H301.3a41.866,41.866,0,0,0-20.833,5.565Zm8.515-51.324a16,16,0,0,0,23.942,13.87l13.892-7.938-7.938-13.892a16,16,0,0,0-29.9,7.96ZM40,308.142v23.21H184.792l-4.329-6.3,13.184-9.064,10.561,15.361H253.55c3.688,0,7.395-.077,11.1-.211L193.291,227.35H176v-.156q-4.814,1.793-9.753,3.167l-26.42,7.339,10.365,15.078-13.184,9.064-13.484-19.613L81.151,254A56.364,56.364,0,0,0,40,308.142Zm440-.79a8.011,8.011,0,0,0-7.109-7.951L387.965,322.56c-.128.035-107.674,23.686-108.033,23.715-8.727.714-17.6,1.077-26.382,1.077H32a16.019,16.019,0,0,0,16,16H455.61A24.417,24.417,0,0,0,480,338.962Z" style="fill:url(#linear-gradient)"/></g></svg>
